<?xml version="1.0" encoding="UTF-8" standalone="no"?>
<svg
   xmlns:dc="http://purl.org/dc/elements/1.1/"
   xmlns:cc="http://creativecommons.org/ns#"
   xmlns:rdf="http://www.w3.org/1999/02/22-rdf-syntax-ns#"
   xmlns:svg="http://www.w3.org/2000/svg"
   xmlns="http://www.w3.org/2000/svg"
   xmlns:sodipodi="http://sodipodi.sourceforge.net/DTD/sodipodi-0.dtd"
   xmlns:inkscape="http://www.inkscape.org/namespaces/inkscape"
   viewBox="0 0 640 640"
   version="1.1"
   id="svg4"
   sodipodi:docname="mining-dutch.svg"
   inkscape:version="0.92.1 r15371">
  <metadata
     id="metadata10">
    <rdf:RDF>
      <cc:Work
         rdf:about="">
        <dc:format>image/svg+xml</dc:format>
        <dc:type
           rdf:resource="http://purl.org/dc/dcmitype/StillImage" />
      </cc:Work>
    </rdf:RDF>
  </metadata>
  <defs
     id="defs8" />
  <sodipodi:namedview
     pagecolor="#ffffff"
     bordercolor="#666666"
     borderopacity="1"
     objecttolerance="10"
     gridtolerance="10"
     guidetolerance="10"
     inkscape:pageopacity="0"
     inkscape:pageshadow="2"
     inkscape:window-width="1511"
     inkscape:window-height="1059"
     id="namedview6"
     showgrid="false"
     inkscape:zoom="0.36875"
     inkscape:cx="320"
     inkscape:cy="320"
     inkscape:window-x="1146"
     inkscape:window-y="698"
     inkscape:window-maximized="0"
     inkscape:current-layer="svg4" />
  <!--!Font Awesome Free 7.0.1 by @fontawesome - https://fontawesome.com License - https://fontawesome.com/license/free Copyright 2025 Fonticons, Inc.-->
  <path
     fill="#ff9f1e"
     d="M180.7 97.8C185.2 91.7 192.4 88 200 88L440 88C447.6 88 454.8 91.6 459.3 97.8L571.3 249.8C578.1 259 577.4 271.7 569.8 280.2L337.8 536.2C333.3 541.2 326.8 544.1 320 544.1C313.2 544.1 306.8 541.2 302.2 536.2L70.2 280.2C62.5 271.7 61.9 259 68.7 249.8L180.7 97.8zM219.2 137.6C215.9 140.1 215 144.6 217.1 148.1L274.5 243.8L127.3 256C123.2 256.3 120 259.8 120 264C120 268.2 123.2 271.6 127.3 272L319.3 288C319.7 288 320.2 288 320.6 288L512.6 272C516.7 271.7 519.9 268.2 519.9 264C519.9 259.8 516.7 256.4 512.6 256L365.4 243.7L422.8 148.1C424.9 144.6 424 140 420.7 137.6C417.4 135.2 412.8 135.6 410 138.6L320 236.2L229.9 138.6C227.1 135.6 222.5 135.2 219.2 137.6z"
     id="path2"
     style="fill:#007dfc;fill-opacity:1" />
</svg>
